<mxfile host="Electron" agent="Mozilla/5.0 (Windows NT 10.0; Win64; x64) AppleWebKit/537.36 (KHTML, like Gecko) draw.io/24.7.17 Chrome/128.0.6613.36 Electron/32.0.1 Safari/537.36" version="24.7.17">
  <diagram name="Page-1" id="2YBvvXClWsGukQMizWep">
    <mxGraphModel dx="2074" dy="1204" grid="1" gridSize="10" guides="1" tooltips="1" connect="1" arrows="1" fold="1" page="1" pageScale="1" pageWidth="850" pageHeight="1100" math="0" shadow="0">
      <root>
        <mxCell id="0" />
        <mxCell id="1" parent="0" />
        <mxCell id="aM9ryv3xv72pqoxQDRHE-1" value="Gateway&amp;nbsp;" style="shape=umlLifeline;perimeter=lifelinePerimeter;whiteSpace=wrap;html=1;container=0;dropTarget=0;collapsible=0;recursiveResize=0;outlineConnect=0;portConstraint=eastwest;newEdgeStyle={&quot;edgeStyle&quot;:&quot;elbowEdgeStyle&quot;,&quot;elbow&quot;:&quot;vertical&quot;,&quot;curved&quot;:0,&quot;rounded&quot;:0};" parent="1" vertex="1">
          <mxGeometry x="270" y="90" width="110" height="300" as="geometry" />
        </mxCell>
        <mxCell id="aM9ryv3xv72pqoxQDRHE-2" value="" style="html=1;points=[];perimeter=orthogonalPerimeter;outlineConnect=0;targetShapes=umlLifeline;portConstraint=eastwest;newEdgeStyle={&quot;edgeStyle&quot;:&quot;elbowEdgeStyle&quot;,&quot;elbow&quot;:&quot;vertical&quot;,&quot;curved&quot;:0,&quot;rounded&quot;:0};" parent="aM9ryv3xv72pqoxQDRHE-1" vertex="1">
          <mxGeometry x="45" y="70" width="10" height="190" as="geometry" />
        </mxCell>
        <mxCell id="aM9ryv3xv72pqoxQDRHE-4" value="" style="html=1;points=[];perimeter=orthogonalPerimeter;outlineConnect=0;targetShapes=umlLifeline;portConstraint=eastwest;newEdgeStyle={&quot;edgeStyle&quot;:&quot;elbowEdgeStyle&quot;,&quot;elbow&quot;:&quot;vertical&quot;,&quot;curved&quot;:0,&quot;rounded&quot;:0};" parent="aM9ryv3xv72pqoxQDRHE-1" vertex="1">
          <mxGeometry x="50" y="120" width="10" height="80" as="geometry" />
        </mxCell>
        <mxCell id="aM9ryv3xv72pqoxQDRHE-5" value="CUSTOMERSERVICE" style="shape=umlLifeline;perimeter=lifelinePerimeter;whiteSpace=wrap;html=1;container=0;dropTarget=0;collapsible=0;recursiveResize=0;outlineConnect=0;portConstraint=eastwest;newEdgeStyle={&quot;edgeStyle&quot;:&quot;elbowEdgeStyle&quot;,&quot;elbow&quot;:&quot;vertical&quot;,&quot;curved&quot;:0,&quot;rounded&quot;:0};" parent="1" vertex="1">
          <mxGeometry x="450" y="90" width="130" height="300" as="geometry" />
        </mxCell>
        <mxCell id="aM9ryv3xv72pqoxQDRHE-6" value="" style="html=1;points=[];perimeter=orthogonalPerimeter;outlineConnect=0;targetShapes=umlLifeline;portConstraint=eastwest;newEdgeStyle={&quot;edgeStyle&quot;:&quot;elbowEdgeStyle&quot;,&quot;elbow&quot;:&quot;vertical&quot;,&quot;curved&quot;:0,&quot;rounded&quot;:0};" parent="aM9ryv3xv72pqoxQDRHE-5" vertex="1">
          <mxGeometry x="45" y="80" width="10" height="170" as="geometry" />
        </mxCell>
        <mxCell id="aM9ryv3xv72pqoxQDRHE-7" value="solicitarCliente(cuentaId)" style="html=1;verticalAlign=bottom;endArrow=block;edgeStyle=elbowEdgeStyle;elbow=horizontal;curved=0;rounded=0;" parent="1" source="aM9ryv3xv72pqoxQDRHE-2" target="aM9ryv3xv72pqoxQDRHE-6" edge="1">
          <mxGeometry relative="1" as="geometry">
            <mxPoint x="425" y="180" as="sourcePoint" />
            <Array as="points">
              <mxPoint x="410" y="170" />
            </Array>
          </mxGeometry>
        </mxCell>
        <mxCell id="J7sA12TsJqCwHjDUouRt-1" value="ACCOUNTSERVICE" style="shape=umlLifeline;perimeter=lifelinePerimeter;whiteSpace=wrap;html=1;container=0;dropTarget=0;collapsible=0;recursiveResize=0;outlineConnect=0;portConstraint=eastwest;newEdgeStyle={&quot;edgeStyle&quot;:&quot;elbowEdgeStyle&quot;,&quot;elbow&quot;:&quot;vertical&quot;,&quot;curved&quot;:0,&quot;rounded&quot;:0};" parent="1" vertex="1">
          <mxGeometry x="630" y="90" width="130" height="300" as="geometry" />
        </mxCell>
        <mxCell id="J7sA12TsJqCwHjDUouRt-2" value="" style="html=1;points=[];perimeter=orthogonalPerimeter;outlineConnect=0;targetShapes=umlLifeline;portConstraint=eastwest;newEdgeStyle={&quot;edgeStyle&quot;:&quot;elbowEdgeStyle&quot;,&quot;elbow&quot;:&quot;vertical&quot;,&quot;curved&quot;:0,&quot;rounded&quot;:0};" parent="J7sA12TsJqCwHjDUouRt-1" vertex="1">
          <mxGeometry x="45" y="80" width="10" height="170" as="geometry" />
        </mxCell>
        <mxCell id="aM9ryv3xv72pqoxQDRHE-3" value="Solicitar ver Saldo" style="html=1;verticalAlign=bottom;startArrow=oval;endArrow=block;startSize=8;edgeStyle=elbowEdgeStyle;elbow=vertical;curved=0;rounded=0;" parent="1" target="aM9ryv3xv72pqoxQDRHE-2" edge="1">
          <mxGeometry relative="1" as="geometry">
            <mxPoint x="170" y="160" as="sourcePoint" />
          </mxGeometry>
        </mxCell>
        <mxCell id="J7sA12TsJqCwHjDUouRt-4" value="getCliente()" style="html=1;verticalAlign=bottom;endArrow=block;edgeStyle=elbowEdgeStyle;elbow=horizontal;curved=0;rounded=0;dashed=1;" parent="1" edge="1">
          <mxGeometry relative="1" as="geometry">
            <mxPoint x="500" y="210" as="sourcePoint" />
            <Array as="points">
              <mxPoint x="425" y="210" />
            </Array>
            <mxPoint x="330" y="210" as="targetPoint" />
            <mxPoint as="offset" />
          </mxGeometry>
        </mxCell>
        <mxCell id="J7sA12TsJqCwHjDUouRt-5" value="Cliente" style="shape=umlActor;verticalLabelPosition=bottom;verticalAlign=top;html=1;outlineConnect=0;" parent="1" vertex="1">
          <mxGeometry x="130" y="150" width="30" height="60" as="geometry" />
        </mxCell>
        <mxCell id="J7sA12TsJqCwHjDUouRt-7" value="Saldo del Cliente" style="html=1;verticalAlign=bottom;endArrow=block;edgeStyle=elbowEdgeStyle;elbow=vertical;curved=0;rounded=0;dashed=1;" parent="1" edge="1">
          <mxGeometry relative="1" as="geometry">
            <mxPoint x="314" y="200" as="sourcePoint" />
            <Array as="points">
              <mxPoint x="249" y="200" />
            </Array>
            <mxPoint x="174" y="200" as="targetPoint" />
          </mxGeometry>
        </mxCell>
        <mxCell id="J7sA12TsJqCwHjDUouRt-8" value="GESTION DE CUENTAS BANCARIAS (ACCOUNTSERVICE)" style="rounded=0;whiteSpace=wrap;html=1;" parent="1" vertex="1">
          <mxGeometry x="40" y="50" width="120" height="70" as="geometry" />
        </mxCell>
        <mxCell id="J7sA12TsJqCwHjDUouRt-9" value="GESTORSERVICE" style="shape=umlLifeline;perimeter=lifelinePerimeter;whiteSpace=wrap;html=1;container=0;dropTarget=0;collapsible=0;recursiveResize=0;outlineConnect=0;portConstraint=eastwest;newEdgeStyle={&quot;edgeStyle&quot;:&quot;elbowEdgeStyle&quot;,&quot;elbow&quot;:&quot;vertical&quot;,&quot;curved&quot;:0,&quot;rounded&quot;:0};" parent="1" vertex="1">
          <mxGeometry x="250" y="490" width="115" height="360" as="geometry" />
        </mxCell>
        <mxCell id="J7sA12TsJqCwHjDUouRt-10" value="" style="html=1;points=[];perimeter=orthogonalPerimeter;outlineConnect=0;targetShapes=umlLifeline;portConstraint=eastwest;newEdgeStyle={&quot;edgeStyle&quot;:&quot;elbowEdgeStyle&quot;,&quot;elbow&quot;:&quot;vertical&quot;,&quot;curved&quot;:0,&quot;rounded&quot;:0};" parent="J7sA12TsJqCwHjDUouRt-9" vertex="1">
          <mxGeometry x="45" y="70" width="10" height="190" as="geometry" />
        </mxCell>
        <mxCell id="J7sA12TsJqCwHjDUouRt-11" value="" style="html=1;points=[];perimeter=orthogonalPerimeter;outlineConnect=0;targetShapes=umlLifeline;portConstraint=eastwest;newEdgeStyle={&quot;edgeStyle&quot;:&quot;elbowEdgeStyle&quot;,&quot;elbow&quot;:&quot;vertical&quot;,&quot;curved&quot;:0,&quot;rounded&quot;:0};" parent="J7sA12TsJqCwHjDUouRt-9" vertex="1">
          <mxGeometry x="50" y="120" width="10" height="80" as="geometry" />
        </mxCell>
        <mxCell id="J7sA12TsJqCwHjDUouRt-12" value="CUSTORMERSERVICE" style="shape=umlLifeline;perimeter=lifelinePerimeter;whiteSpace=wrap;html=1;container=0;dropTarget=0;collapsible=0;recursiveResize=0;outlineConnect=0;portConstraint=eastwest;newEdgeStyle={&quot;edgeStyle&quot;:&quot;elbowEdgeStyle&quot;,&quot;elbow&quot;:&quot;vertical&quot;,&quot;curved&quot;:0,&quot;rounded&quot;:0};" parent="1" vertex="1">
          <mxGeometry x="430" y="490" width="140" height="360" as="geometry" />
        </mxCell>
        <mxCell id="J7sA12TsJqCwHjDUouRt-13" value="" style="html=1;points=[];perimeter=orthogonalPerimeter;outlineConnect=0;targetShapes=umlLifeline;portConstraint=eastwest;newEdgeStyle={&quot;edgeStyle&quot;:&quot;elbowEdgeStyle&quot;,&quot;elbow&quot;:&quot;vertical&quot;,&quot;curved&quot;:0,&quot;rounded&quot;:0};" parent="J7sA12TsJqCwHjDUouRt-12" vertex="1">
          <mxGeometry x="45" y="80" width="10" height="170" as="geometry" />
        </mxCell>
        <mxCell id="J7sA12TsJqCwHjDUouRt-14" value="solicitarCliente(cuentaId)" style="html=1;verticalAlign=bottom;endArrow=block;edgeStyle=elbowEdgeStyle;elbow=vertical;curved=0;rounded=0;" parent="1" source="J7sA12TsJqCwHjDUouRt-10" target="J7sA12TsJqCwHjDUouRt-13" edge="1">
          <mxGeometry x="0.0017" relative="1" as="geometry">
            <mxPoint x="420" y="580" as="sourcePoint" />
            <Array as="points">
              <mxPoint x="405" y="570" />
            </Array>
            <mxPoint as="offset" />
          </mxGeometry>
        </mxCell>
        <mxCell id="J7sA12TsJqCwHjDUouRt-15" value="getCliente()" style="html=1;verticalAlign=bottom;endArrow=block;edgeStyle=elbowEdgeStyle;elbow=vertical;curved=0;rounded=0;dashed=1;" parent="1" edge="1">
          <mxGeometry relative="1" as="geometry">
            <mxPoint x="476" y="590" as="sourcePoint" />
            <Array as="points">
              <mxPoint x="376" y="590" />
            </Array>
            <mxPoint x="310" y="590" as="targetPoint" />
          </mxGeometry>
        </mxCell>
        <mxCell id="J7sA12TsJqCwHjDUouRt-16" value="CREDITSERVICE" style="shape=umlLifeline;perimeter=lifelinePerimeter;whiteSpace=wrap;html=1;container=0;dropTarget=0;collapsible=0;recursiveResize=0;outlineConnect=0;portConstraint=eastwest;newEdgeStyle={&quot;edgeStyle&quot;:&quot;elbowEdgeStyle&quot;,&quot;elbow&quot;:&quot;vertical&quot;,&quot;curved&quot;:0,&quot;rounded&quot;:0};" parent="1" vertex="1">
          <mxGeometry x="650" y="490" width="135" height="360" as="geometry" />
        </mxCell>
        <mxCell id="J7sA12TsJqCwHjDUouRt-17" value="" style="html=1;points=[];perimeter=orthogonalPerimeter;outlineConnect=0;targetShapes=umlLifeline;portConstraint=eastwest;newEdgeStyle={&quot;edgeStyle&quot;:&quot;elbowEdgeStyle&quot;,&quot;elbow&quot;:&quot;vertical&quot;,&quot;curved&quot;:0,&quot;rounded&quot;:0};" parent="J7sA12TsJqCwHjDUouRt-16" vertex="1">
          <mxGeometry x="45" y="80" width="10" height="170" as="geometry" />
        </mxCell>
        <mxCell id="J7sA12TsJqCwHjDUouRt-18" value="PagoCredito()" style="html=1;verticalAlign=bottom;endArrow=block;edgeStyle=elbowEdgeStyle;elbow=vertical;curved=0;rounded=0;" parent="1" edge="1">
          <mxGeometry x="0.0033" relative="1" as="geometry">
            <mxPoint x="310" y="619.29" as="sourcePoint" />
            <Array as="points">
              <mxPoint x="320" y="619" />
            </Array>
            <mxPoint x="690" y="619" as="targetPoint" />
            <mxPoint as="offset" />
          </mxGeometry>
        </mxCell>
        <mxCell id="J7sA12TsJqCwHjDUouRt-19" value="Pagar Producto de Credito" style="html=1;verticalAlign=bottom;startArrow=oval;endArrow=block;startSize=8;edgeStyle=elbowEdgeStyle;elbow=vertical;curved=0;rounded=0;" parent="1" target="J7sA12TsJqCwHjDUouRt-10" edge="1">
          <mxGeometry x="0.0032" relative="1" as="geometry">
            <mxPoint x="130" y="570" as="sourcePoint" />
            <Array as="points">
              <mxPoint x="250" y="570" />
            </Array>
            <mxPoint as="offset" />
          </mxGeometry>
        </mxCell>
        <mxCell id="J7sA12TsJqCwHjDUouRt-21" value="Cliente" style="shape=umlActor;verticalLabelPosition=bottom;verticalAlign=top;html=1;outlineConnect=0;" parent="1" vertex="1">
          <mxGeometry x="85" y="550" width="30" height="60" as="geometry" />
        </mxCell>
        <mxCell id="J7sA12TsJqCwHjDUouRt-22" value="Respuesta Cliente Ok" style="html=1;verticalAlign=bottom;endArrow=block;edgeStyle=elbowEdgeStyle;elbow=vertical;curved=0;rounded=0;dashed=1;" parent="1" edge="1">
          <mxGeometry relative="1" as="geometry">
            <mxPoint x="294" y="700" as="sourcePoint" />
            <Array as="points">
              <mxPoint x="229" y="700" />
            </Array>
            <mxPoint x="115" y="630" as="targetPoint" />
          </mxGeometry>
        </mxCell>
        <mxCell id="J7sA12TsJqCwHjDUouRt-23" value="PAGO DE CREDITO&lt;div&gt;(CREDITSERVICE)&lt;/div&gt;" style="rounded=0;whiteSpace=wrap;html=1;" parent="1" vertex="1">
          <mxGeometry x="30" y="390" width="150" height="90" as="geometry" />
        </mxCell>
        <mxCell id="J7sA12TsJqCwHjDUouRt-24" value="procesarPagoCredito()" style="html=1;verticalAlign=bottom;endArrow=block;edgeStyle=elbowEdgeStyle;elbow=vertical;curved=0;rounded=0;dashed=1;" parent="1" source="J7sA12TsJqCwHjDUouRt-17" edge="1">
          <mxGeometry relative="1" as="geometry">
            <mxPoint x="485" y="647" as="sourcePoint" />
            <Array as="points">
              <mxPoint x="410" y="647" />
            </Array>
            <mxPoint x="310" y="647" as="targetPoint" />
          </mxGeometry>
        </mxCell>
        <mxCell id="J7sA12TsJqCwHjDUouRt-25" value="Error Saldo no disponible&amp;nbsp;&lt;div&gt;u otro motivo&lt;/div&gt;" style="html=1;verticalAlign=bottom;endArrow=block;edgeStyle=elbowEdgeStyle;elbow=vertical;curved=0;rounded=0;dashed=1;" parent="1" edge="1">
          <mxGeometry x="0.004" relative="1" as="geometry">
            <mxPoint x="289" y="750" as="sourcePoint" />
            <Array as="points">
              <mxPoint x="224" y="750" />
            </Array>
            <mxPoint x="100" y="690" as="targetPoint" />
            <mxPoint as="offset" />
          </mxGeometry>
        </mxCell>
        <mxCell id="1kuVa8GH8NHrZ08HFkGU-1" value="GESTORSERVICE" style="shape=umlLifeline;perimeter=lifelinePerimeter;whiteSpace=wrap;html=1;container=0;dropTarget=0;collapsible=0;recursiveResize=0;outlineConnect=0;portConstraint=eastwest;newEdgeStyle={&quot;edgeStyle&quot;:&quot;elbowEdgeStyle&quot;,&quot;elbow&quot;:&quot;vertical&quot;,&quot;curved&quot;:0,&quot;rounded&quot;:0};" parent="1" vertex="1">
          <mxGeometry x="240" y="990" width="115" height="360" as="geometry" />
        </mxCell>
        <mxCell id="1kuVa8GH8NHrZ08HFkGU-2" value="" style="html=1;points=[];perimeter=orthogonalPerimeter;outlineConnect=0;targetShapes=umlLifeline;portConstraint=eastwest;newEdgeStyle={&quot;edgeStyle&quot;:&quot;elbowEdgeStyle&quot;,&quot;elbow&quot;:&quot;vertical&quot;,&quot;curved&quot;:0,&quot;rounded&quot;:0};" parent="1kuVa8GH8NHrZ08HFkGU-1" vertex="1">
          <mxGeometry x="45" y="70" width="10" height="190" as="geometry" />
        </mxCell>
        <mxCell id="1kuVa8GH8NHrZ08HFkGU-3" value="" style="html=1;points=[];perimeter=orthogonalPerimeter;outlineConnect=0;targetShapes=umlLifeline;portConstraint=eastwest;newEdgeStyle={&quot;edgeStyle&quot;:&quot;elbowEdgeStyle&quot;,&quot;elbow&quot;:&quot;vertical&quot;,&quot;curved&quot;:0,&quot;rounded&quot;:0};" parent="1kuVa8GH8NHrZ08HFkGU-1" vertex="1">
          <mxGeometry x="50" y="120" width="10" height="80" as="geometry" />
        </mxCell>
        <mxCell id="1kuVa8GH8NHrZ08HFkGU-4" value="CUSTORMERSERVICE" style="shape=umlLifeline;perimeter=lifelinePerimeter;whiteSpace=wrap;html=1;container=0;dropTarget=0;collapsible=0;recursiveResize=0;outlineConnect=0;portConstraint=eastwest;newEdgeStyle={&quot;edgeStyle&quot;:&quot;elbowEdgeStyle&quot;,&quot;elbow&quot;:&quot;vertical&quot;,&quot;curved&quot;:0,&quot;rounded&quot;:0};" parent="1" vertex="1">
          <mxGeometry x="420" y="990" width="130" height="360" as="geometry" />
        </mxCell>
        <mxCell id="1kuVa8GH8NHrZ08HFkGU-5" value="" style="html=1;points=[];perimeter=orthogonalPerimeter;outlineConnect=0;targetShapes=umlLifeline;portConstraint=eastwest;newEdgeStyle={&quot;edgeStyle&quot;:&quot;elbowEdgeStyle&quot;,&quot;elbow&quot;:&quot;vertical&quot;,&quot;curved&quot;:0,&quot;rounded&quot;:0};" parent="1kuVa8GH8NHrZ08HFkGU-4" vertex="1">
          <mxGeometry x="45" y="80" width="10" height="170" as="geometry" />
        </mxCell>
        <mxCell id="1kuVa8GH8NHrZ08HFkGU-6" value="solicitarDatosCliente(cuentaId)" style="html=1;verticalAlign=bottom;endArrow=block;edgeStyle=elbowEdgeStyle;elbow=vertical;curved=0;rounded=0;" parent="1" source="1kuVa8GH8NHrZ08HFkGU-2" target="1kuVa8GH8NHrZ08HFkGU-5" edge="1">
          <mxGeometry x="0.0017" relative="1" as="geometry">
            <mxPoint x="410" y="1080" as="sourcePoint" />
            <Array as="points">
              <mxPoint x="395" y="1070" />
            </Array>
            <mxPoint as="offset" />
          </mxGeometry>
        </mxCell>
        <mxCell id="1kuVa8GH8NHrZ08HFkGU-8" value="ACCOUNTSERVICE" style="shape=umlLifeline;perimeter=lifelinePerimeter;whiteSpace=wrap;html=1;container=0;dropTarget=0;collapsible=0;recursiveResize=0;outlineConnect=0;portConstraint=eastwest;newEdgeStyle={&quot;edgeStyle&quot;:&quot;elbowEdgeStyle&quot;,&quot;elbow&quot;:&quot;vertical&quot;,&quot;curved&quot;:0,&quot;rounded&quot;:0};" parent="1" vertex="1">
          <mxGeometry x="640" y="990" width="135" height="360" as="geometry" />
        </mxCell>
        <mxCell id="1kuVa8GH8NHrZ08HFkGU-9" value="" style="html=1;points=[];perimeter=orthogonalPerimeter;outlineConnect=0;targetShapes=umlLifeline;portConstraint=eastwest;newEdgeStyle={&quot;edgeStyle&quot;:&quot;elbowEdgeStyle&quot;,&quot;elbow&quot;:&quot;vertical&quot;,&quot;curved&quot;:0,&quot;rounded&quot;:0};" parent="1kuVa8GH8NHrZ08HFkGU-8" vertex="1">
          <mxGeometry x="45" y="80" width="10" height="170" as="geometry" />
        </mxCell>
        <mxCell id="1kuVa8GH8NHrZ08HFkGU-10" value="solicitarCuentaAscociada(cuentaId)" style="html=1;verticalAlign=bottom;endArrow=block;edgeStyle=elbowEdgeStyle;elbow=vertical;curved=0;rounded=0;" parent="1" target="1kuVa8GH8NHrZ08HFkGU-9" edge="1">
          <mxGeometry x="0.0033" relative="1" as="geometry">
            <mxPoint x="470" y="1090.29" as="sourcePoint" />
            <Array as="points">
              <mxPoint x="490" y="1090" />
            </Array>
            <mxPoint x="647" y="1090" as="targetPoint" />
            <mxPoint as="offset" />
          </mxGeometry>
        </mxCell>
        <mxCell id="1kuVa8GH8NHrZ08HFkGU-11" value="ConsultaMovimientos" style="html=1;verticalAlign=bottom;startArrow=oval;endArrow=block;startSize=8;edgeStyle=elbowEdgeStyle;elbow=vertical;curved=0;rounded=0;" parent="1" target="1kuVa8GH8NHrZ08HFkGU-2" edge="1">
          <mxGeometry x="0.0032" relative="1" as="geometry">
            <mxPoint x="120" y="1070" as="sourcePoint" />
            <Array as="points">
              <mxPoint x="240" y="1070" />
            </Array>
            <mxPoint as="offset" />
          </mxGeometry>
        </mxCell>
        <mxCell id="1kuVa8GH8NHrZ08HFkGU-13" value="Cliente" style="shape=umlActor;verticalLabelPosition=bottom;verticalAlign=top;html=1;outlineConnect=0;" parent="1" vertex="1">
          <mxGeometry x="75" y="1050" width="30" height="60" as="geometry" />
        </mxCell>
        <mxCell id="1kuVa8GH8NHrZ08HFkGU-14" value="Respuesta Movimientos Ok" style="html=1;verticalAlign=bottom;endArrow=block;edgeStyle=elbowEdgeStyle;elbow=vertical;curved=0;rounded=0;dashed=1;" parent="1" edge="1">
          <mxGeometry relative="1" as="geometry">
            <mxPoint x="284" y="1210" as="sourcePoint" />
            <Array as="points">
              <mxPoint x="219" y="1210" />
            </Array>
            <mxPoint x="105" y="1140" as="targetPoint" />
          </mxGeometry>
        </mxCell>
        <mxCell id="1kuVa8GH8NHrZ08HFkGU-15" value="GESTION DE MOVIMIENTOS&lt;div&gt;(TRANSACTIONSERVICE)&lt;/div&gt;" style="rounded=0;whiteSpace=wrap;html=1;" parent="1" vertex="1">
          <mxGeometry x="20" y="890" width="150" height="90" as="geometry" />
        </mxCell>
        <mxCell id="1kuVa8GH8NHrZ08HFkGU-17" value="Error&amp;nbsp;" style="html=1;verticalAlign=bottom;endArrow=block;edgeStyle=elbowEdgeStyle;elbow=vertical;curved=0;rounded=0;dashed=1;" parent="1" edge="1">
          <mxGeometry relative="1" as="geometry">
            <mxPoint x="294" y="1300" as="sourcePoint" />
            <Array as="points">
              <mxPoint x="229" y="1300" />
            </Array>
            <mxPoint x="105" y="1240" as="targetPoint" />
          </mxGeometry>
        </mxCell>
        <mxCell id="1kuVa8GH8NHrZ08HFkGU-19" value="Respuesta(PagoOk)" style="html=1;verticalAlign=bottom;endArrow=none;edgeStyle=elbowEdgeStyle;elbow=vertical;curved=0;rounded=0;startArrow=classic;startFill=1;endFill=0;dashed=1;" parent="1" edge="1">
          <mxGeometry relative="1" as="geometry">
            <mxPoint x="300" y="1240" as="sourcePoint" />
            <Array as="points">
              <mxPoint x="375" y="1240" />
            </Array>
            <mxPoint x="470" y="1240" as="targetPoint" />
          </mxGeometry>
        </mxCell>
        <mxCell id="1kuVa8GH8NHrZ08HFkGU-21" value="TRANSACTIONSERVICE" style="shape=umlLifeline;perimeter=lifelinePerimeter;whiteSpace=wrap;html=1;container=0;dropTarget=0;collapsible=0;recursiveResize=0;outlineConnect=0;portConstraint=eastwest;newEdgeStyle={&quot;edgeStyle&quot;:&quot;elbowEdgeStyle&quot;,&quot;elbow&quot;:&quot;vertical&quot;,&quot;curved&quot;:0,&quot;rounded&quot;:0};" parent="1" vertex="1">
          <mxGeometry x="880" y="990" width="150" height="360" as="geometry" />
        </mxCell>
        <mxCell id="1kuVa8GH8NHrZ08HFkGU-22" value="" style="html=1;points=[];perimeter=orthogonalPerimeter;outlineConnect=0;targetShapes=umlLifeline;portConstraint=eastwest;newEdgeStyle={&quot;edgeStyle&quot;:&quot;elbowEdgeStyle&quot;,&quot;elbow&quot;:&quot;vertical&quot;,&quot;curved&quot;:0,&quot;rounded&quot;:0};" parent="1kuVa8GH8NHrZ08HFkGU-21" vertex="1">
          <mxGeometry x="45" y="80" width="10" height="170" as="geometry" />
        </mxCell>
        <mxCell id="1kuVa8GH8NHrZ08HFkGU-23" value="solicitarMovimientosCuenta(cuentaId)" style="html=1;verticalAlign=bottom;endArrow=block;edgeStyle=elbowEdgeStyle;elbow=vertical;curved=0;rounded=0;" parent="1" edge="1">
          <mxGeometry x="0.0033" relative="1" as="geometry">
            <mxPoint x="710" y="1110.29" as="sourcePoint" />
            <Array as="points">
              <mxPoint x="720" y="1110" />
            </Array>
            <mxPoint x="925" y="1110" as="targetPoint" />
            <mxPoint as="offset" />
          </mxGeometry>
        </mxCell>
        <mxCell id="1kuVa8GH8NHrZ08HFkGU-25" value="getMovimientos()" style="html=1;verticalAlign=bottom;endArrow=none;edgeStyle=elbowEdgeStyle;elbow=vertical;curved=0;rounded=0;startArrow=classic;startFill=1;endFill=0;dashed=1;" parent="1" source="1kuVa8GH8NHrZ08HFkGU-3" edge="1">
          <mxGeometry relative="1" as="geometry">
            <mxPoint x="710" y="1169.5" as="sourcePoint" />
            <Array as="points">
              <mxPoint x="790" y="1169.5" />
            </Array>
            <mxPoint x="920" y="1169.5" as="targetPoint" />
          </mxGeometry>
        </mxCell>
        <mxCell id="1kuVa8GH8NHrZ08HFkGU-26" value="TRANSACTIONSERVICE" style="shape=umlLifeline;perimeter=lifelinePerimeter;whiteSpace=wrap;html=1;container=0;dropTarget=0;collapsible=0;recursiveResize=0;outlineConnect=0;portConstraint=eastwest;newEdgeStyle={&quot;edgeStyle&quot;:&quot;elbowEdgeStyle&quot;,&quot;elbow&quot;:&quot;vertical&quot;,&quot;curved&quot;:0,&quot;rounded&quot;:0};" parent="1" vertex="1">
          <mxGeometry x="887" y="490" width="150" height="360" as="geometry" />
        </mxCell>
        <mxCell id="1kuVa8GH8NHrZ08HFkGU-27" value="" style="html=1;points=[];perimeter=orthogonalPerimeter;outlineConnect=0;targetShapes=umlLifeline;portConstraint=eastwest;newEdgeStyle={&quot;edgeStyle&quot;:&quot;elbowEdgeStyle&quot;,&quot;elbow&quot;:&quot;vertical&quot;,&quot;curved&quot;:0,&quot;rounded&quot;:0};" parent="1kuVa8GH8NHrZ08HFkGU-26" vertex="1">
          <mxGeometry x="45" y="80" width="10" height="240" as="geometry" />
        </mxCell>
        <mxCell id="1kuVa8GH8NHrZ08HFkGU-29" value="TRANSACTIONSERVICE" style="shape=umlLifeline;perimeter=lifelinePerimeter;whiteSpace=wrap;html=1;container=0;dropTarget=0;collapsible=0;recursiveResize=0;outlineConnect=0;portConstraint=eastwest;newEdgeStyle={&quot;edgeStyle&quot;:&quot;elbowEdgeStyle&quot;,&quot;elbow&quot;:&quot;vertical&quot;,&quot;curved&quot;:0,&quot;rounded&quot;:0};" parent="1" vertex="1">
          <mxGeometry x="867" y="90" width="150" height="360" as="geometry" />
        </mxCell>
        <mxCell id="1kuVa8GH8NHrZ08HFkGU-30" value="" style="html=1;points=[];perimeter=orthogonalPerimeter;outlineConnect=0;targetShapes=umlLifeline;portConstraint=eastwest;newEdgeStyle={&quot;edgeStyle&quot;:&quot;elbowEdgeStyle&quot;,&quot;elbow&quot;:&quot;vertical&quot;,&quot;curved&quot;:0,&quot;rounded&quot;:0};" parent="1kuVa8GH8NHrZ08HFkGU-29" vertex="1">
          <mxGeometry x="45" y="80" width="10" height="170" as="geometry" />
        </mxCell>
        <mxCell id="1kuVa8GH8NHrZ08HFkGU-32" value="GrabanMovimiento(cuentaId)" style="html=1;verticalAlign=bottom;endArrow=block;edgeStyle=elbowEdgeStyle;elbow=vertical;curved=0;rounded=0;" parent="1" edge="1">
          <mxGeometry x="0.0033" relative="1" as="geometry">
            <mxPoint x="330" y="310.28999999999996" as="sourcePoint" />
            <Array as="points">
              <mxPoint x="340" y="310" />
            </Array>
            <mxPoint x="910" y="310" as="targetPoint" />
            <mxPoint as="offset" />
          </mxGeometry>
        </mxCell>
        <mxCell id="1kuVa8GH8NHrZ08HFkGU-34" value="GrabanMovimiento(cuentaId)" style="html=1;verticalAlign=bottom;endArrow=block;edgeStyle=elbowEdgeStyle;elbow=vertical;curved=0;rounded=0;" parent="1" target="1kuVa8GH8NHrZ08HFkGU-27" edge="1">
          <mxGeometry x="0.0033" relative="1" as="geometry">
            <mxPoint x="310" y="780.29" as="sourcePoint" />
            <Array as="points">
              <mxPoint x="320" y="780" />
            </Array>
            <mxPoint x="921.5" y="780" as="targetPoint" />
            <mxPoint as="offset" />
          </mxGeometry>
        </mxCell>
        <mxCell id="1kuVa8GH8NHrZ08HFkGU-35" value="Error Saldo no disponible&amp;nbsp;&lt;div&gt;u otro motivo&lt;/div&gt;" style="html=1;verticalAlign=bottom;endArrow=block;edgeStyle=elbowEdgeStyle;elbow=vertical;curved=0;rounded=0;dashed=1;" parent="1" edge="1">
          <mxGeometry x="0.004" relative="1" as="geometry">
            <mxPoint x="329" y="330" as="sourcePoint" />
            <Array as="points">
              <mxPoint x="264" y="330" />
            </Array>
            <mxPoint x="140" y="270" as="targetPoint" />
            <mxPoint as="offset" />
          </mxGeometry>
        </mxCell>
        <mxCell id="1kuVa8GH8NHrZ08HFkGU-82" value="ConsultarSaldo(cuentaId)" style="html=1;verticalAlign=bottom;endArrow=block;edgeStyle=elbowEdgeStyle;elbow=horizontal;curved=0;rounded=0;" parent="1" target="J7sA12TsJqCwHjDUouRt-2" edge="1">
          <mxGeometry relative="1" as="geometry">
            <mxPoint x="330" y="229.5" as="sourcePoint" />
            <Array as="points">
              <mxPoint x="415" y="229.5" />
            </Array>
            <mxPoint x="505" y="229.5" as="targetPoint" />
          </mxGeometry>
        </mxCell>
        <mxCell id="1kuVa8GH8NHrZ08HFkGU-83" value="getSaldo()" style="html=1;verticalAlign=bottom;endArrow=block;edgeStyle=elbowEdgeStyle;elbow=horizontal;curved=0;rounded=0;dashed=1;" parent="1" target="aM9ryv3xv72pqoxQDRHE-1" edge="1">
          <mxGeometry relative="1" as="geometry">
            <mxPoint x="680" y="259" as="sourcePoint" />
            <Array as="points">
              <mxPoint x="605" y="259" />
            </Array>
            <mxPoint x="510" y="259" as="targetPoint" />
          </mxGeometry>
        </mxCell>
        <mxCell id="1kuVa8GH8NHrZ08HFkGU-114" value="GESTORSERVICE" style="shape=umlLifeline;perimeter=lifelinePerimeter;whiteSpace=wrap;html=1;container=0;dropTarget=0;collapsible=0;recursiveResize=0;outlineConnect=0;portConstraint=eastwest;newEdgeStyle={&quot;edgeStyle&quot;:&quot;elbowEdgeStyle&quot;,&quot;elbow&quot;:&quot;vertical&quot;,&quot;curved&quot;:0,&quot;rounded&quot;:0};" parent="1" vertex="1">
          <mxGeometry x="1320" y="180" width="115" height="360" as="geometry" />
        </mxCell>
        <mxCell id="1kuVa8GH8NHrZ08HFkGU-115" value="" style="html=1;points=[];perimeter=orthogonalPerimeter;outlineConnect=0;targetShapes=umlLifeline;portConstraint=eastwest;newEdgeStyle={&quot;edgeStyle&quot;:&quot;elbowEdgeStyle&quot;,&quot;elbow&quot;:&quot;vertical&quot;,&quot;curved&quot;:0,&quot;rounded&quot;:0};" parent="1kuVa8GH8NHrZ08HFkGU-114" vertex="1">
          <mxGeometry x="45" y="70" width="10" height="190" as="geometry" />
        </mxCell>
        <mxCell id="1kuVa8GH8NHrZ08HFkGU-116" value="" style="html=1;points=[];perimeter=orthogonalPerimeter;outlineConnect=0;targetShapes=umlLifeline;portConstraint=eastwest;newEdgeStyle={&quot;edgeStyle&quot;:&quot;elbowEdgeStyle&quot;,&quot;elbow&quot;:&quot;vertical&quot;,&quot;curved&quot;:0,&quot;rounded&quot;:0};" parent="1kuVa8GH8NHrZ08HFkGU-114" vertex="1">
          <mxGeometry x="50" y="120" width="10" height="80" as="geometry" />
        </mxCell>
        <mxCell id="1kuVa8GH8NHrZ08HFkGU-117" value="CUSTORMERSERVICE" style="shape=umlLifeline;perimeter=lifelinePerimeter;whiteSpace=wrap;html=1;container=0;dropTarget=0;collapsible=0;recursiveResize=0;outlineConnect=0;portConstraint=eastwest;newEdgeStyle={&quot;edgeStyle&quot;:&quot;elbowEdgeStyle&quot;,&quot;elbow&quot;:&quot;vertical&quot;,&quot;curved&quot;:0,&quot;rounded&quot;:0};" parent="1" vertex="1">
          <mxGeometry x="1500" y="180" width="140" height="360" as="geometry" />
        </mxCell>
        <mxCell id="1kuVa8GH8NHrZ08HFkGU-118" value="" style="html=1;points=[];perimeter=orthogonalPerimeter;outlineConnect=0;targetShapes=umlLifeline;portConstraint=eastwest;newEdgeStyle={&quot;edgeStyle&quot;:&quot;elbowEdgeStyle&quot;,&quot;elbow&quot;:&quot;vertical&quot;,&quot;curved&quot;:0,&quot;rounded&quot;:0};" parent="1kuVa8GH8NHrZ08HFkGU-117" vertex="1">
          <mxGeometry x="45" y="80" width="10" height="170" as="geometry" />
        </mxCell>
        <mxCell id="1kuVa8GH8NHrZ08HFkGU-119" value="solicitarCliente(cuentaId)" style="html=1;verticalAlign=bottom;endArrow=block;edgeStyle=elbowEdgeStyle;elbow=vertical;curved=0;rounded=0;" parent="1" source="1kuVa8GH8NHrZ08HFkGU-115" target="1kuVa8GH8NHrZ08HFkGU-118" edge="1">
          <mxGeometry x="0.0017" relative="1" as="geometry">
            <mxPoint x="1490" y="270" as="sourcePoint" />
            <Array as="points">
              <mxPoint x="1475" y="260" />
            </Array>
            <mxPoint as="offset" />
          </mxGeometry>
        </mxCell>
        <mxCell id="1kuVa8GH8NHrZ08HFkGU-120" value="getCliente()" style="html=1;verticalAlign=bottom;endArrow=block;edgeStyle=elbowEdgeStyle;elbow=vertical;curved=0;rounded=0;dashed=1;" parent="1" edge="1">
          <mxGeometry relative="1" as="geometry">
            <mxPoint x="1546" y="280" as="sourcePoint" />
            <Array as="points">
              <mxPoint x="1446" y="280" />
            </Array>
            <mxPoint x="1380" y="280" as="targetPoint" />
          </mxGeometry>
        </mxCell>
        <mxCell id="1kuVa8GH8NHrZ08HFkGU-121" value="CREDITSERVICE" style="shape=umlLifeline;perimeter=lifelinePerimeter;whiteSpace=wrap;html=1;container=0;dropTarget=0;collapsible=0;recursiveResize=0;outlineConnect=0;portConstraint=eastwest;newEdgeStyle={&quot;edgeStyle&quot;:&quot;elbowEdgeStyle&quot;,&quot;elbow&quot;:&quot;vertical&quot;,&quot;curved&quot;:0,&quot;rounded&quot;:0};" parent="1" vertex="1">
          <mxGeometry x="1720" y="180" width="135" height="360" as="geometry" />
        </mxCell>
        <mxCell id="1kuVa8GH8NHrZ08HFkGU-122" value="" style="html=1;points=[];perimeter=orthogonalPerimeter;outlineConnect=0;targetShapes=umlLifeline;portConstraint=eastwest;newEdgeStyle={&quot;edgeStyle&quot;:&quot;elbowEdgeStyle&quot;,&quot;elbow&quot;:&quot;vertical&quot;,&quot;curved&quot;:0,&quot;rounded&quot;:0};" parent="1kuVa8GH8NHrZ08HFkGU-121" vertex="1">
          <mxGeometry x="45" y="80" width="10" height="170" as="geometry" />
        </mxCell>
        <mxCell id="1kuVa8GH8NHrZ08HFkGU-123" value="RetiroEfectivo()" style="html=1;verticalAlign=bottom;endArrow=block;edgeStyle=elbowEdgeStyle;elbow=vertical;curved=0;rounded=0;" parent="1" edge="1">
          <mxGeometry x="0.0033" relative="1" as="geometry">
            <mxPoint x="1380" y="309.28999999999996" as="sourcePoint" />
            <Array as="points">
              <mxPoint x="1390" y="309" />
            </Array>
            <mxPoint x="1760" y="309" as="targetPoint" />
            <mxPoint as="offset" />
          </mxGeometry>
        </mxCell>
        <mxCell id="1kuVa8GH8NHrZ08HFkGU-124" value="Retiro Efectivo" style="html=1;verticalAlign=bottom;startArrow=oval;endArrow=block;startSize=8;edgeStyle=elbowEdgeStyle;elbow=vertical;curved=0;rounded=0;" parent="1" target="1kuVa8GH8NHrZ08HFkGU-115" edge="1">
          <mxGeometry x="0.0032" relative="1" as="geometry">
            <mxPoint x="1200" y="260" as="sourcePoint" />
            <Array as="points">
              <mxPoint x="1320" y="260" />
            </Array>
            <mxPoint as="offset" />
          </mxGeometry>
        </mxCell>
        <mxCell id="1kuVa8GH8NHrZ08HFkGU-125" value="Cliente" style="shape=umlActor;verticalLabelPosition=bottom;verticalAlign=top;html=1;outlineConnect=0;" parent="1" vertex="1">
          <mxGeometry x="1155" y="240" width="30" height="60" as="geometry" />
        </mxCell>
        <mxCell id="1kuVa8GH8NHrZ08HFkGU-126" value="Respuesta Cliente Ok" style="html=1;verticalAlign=bottom;endArrow=block;edgeStyle=elbowEdgeStyle;elbow=vertical;curved=0;rounded=0;dashed=1;" parent="1" edge="1">
          <mxGeometry relative="1" as="geometry">
            <mxPoint x="1364" y="390" as="sourcePoint" />
            <Array as="points">
              <mxPoint x="1299" y="390" />
            </Array>
            <mxPoint x="1185" y="320" as="targetPoint" />
          </mxGeometry>
        </mxCell>
        <mxCell id="1kuVa8GH8NHrZ08HFkGU-127" value="PAGO DE CREDITO&lt;div&gt;(ACCOUNTSERVICE)&lt;/div&gt;" style="rounded=0;whiteSpace=wrap;html=1;" parent="1" vertex="1">
          <mxGeometry x="1100" y="80" width="150" height="90" as="geometry" />
        </mxCell>
        <mxCell id="1kuVa8GH8NHrZ08HFkGU-128" value="procesarRetiroEfectivo()" style="html=1;verticalAlign=bottom;endArrow=block;edgeStyle=elbowEdgeStyle;elbow=vertical;curved=0;rounded=0;dashed=1;" parent="1" source="1kuVa8GH8NHrZ08HFkGU-122" edge="1">
          <mxGeometry relative="1" as="geometry">
            <mxPoint x="1555" y="337" as="sourcePoint" />
            <Array as="points">
              <mxPoint x="1480" y="337" />
            </Array>
            <mxPoint x="1380" y="337" as="targetPoint" />
          </mxGeometry>
        </mxCell>
        <mxCell id="1kuVa8GH8NHrZ08HFkGU-129" value="Error Saldo no disponible&amp;nbsp;&lt;div&gt;u otro motivo&lt;/div&gt;" style="html=1;verticalAlign=bottom;endArrow=block;edgeStyle=elbowEdgeStyle;elbow=vertical;curved=0;rounded=0;dashed=1;" parent="1" edge="1">
          <mxGeometry x="0.004" relative="1" as="geometry">
            <mxPoint x="1359" y="440" as="sourcePoint" />
            <Array as="points">
              <mxPoint x="1294" y="440" />
            </Array>
            <mxPoint x="1170" y="380" as="targetPoint" />
            <mxPoint as="offset" />
          </mxGeometry>
        </mxCell>
        <mxCell id="1kuVa8GH8NHrZ08HFkGU-130" value="TRANSACTIONSERVICE" style="shape=umlLifeline;perimeter=lifelinePerimeter;whiteSpace=wrap;html=1;container=0;dropTarget=0;collapsible=0;recursiveResize=0;outlineConnect=0;portConstraint=eastwest;newEdgeStyle={&quot;edgeStyle&quot;:&quot;elbowEdgeStyle&quot;,&quot;elbow&quot;:&quot;vertical&quot;,&quot;curved&quot;:0,&quot;rounded&quot;:0};" parent="1" vertex="1">
          <mxGeometry x="1957" y="180" width="150" height="360" as="geometry" />
        </mxCell>
        <mxCell id="1kuVa8GH8NHrZ08HFkGU-131" value="" style="html=1;points=[];perimeter=orthogonalPerimeter;outlineConnect=0;targetShapes=umlLifeline;portConstraint=eastwest;newEdgeStyle={&quot;edgeStyle&quot;:&quot;elbowEdgeStyle&quot;,&quot;elbow&quot;:&quot;vertical&quot;,&quot;curved&quot;:0,&quot;rounded&quot;:0};" parent="1kuVa8GH8NHrZ08HFkGU-130" vertex="1">
          <mxGeometry x="45" y="80" width="10" height="240" as="geometry" />
        </mxCell>
        <mxCell id="1kuVa8GH8NHrZ08HFkGU-132" value="GrabanMovimiento(cuentaId)" style="html=1;verticalAlign=bottom;endArrow=block;edgeStyle=elbowEdgeStyle;elbow=vertical;curved=0;rounded=0;" parent="1" target="1kuVa8GH8NHrZ08HFkGU-131" edge="1">
          <mxGeometry x="0.0033" relative="1" as="geometry">
            <mxPoint x="1380" y="470.28999999999996" as="sourcePoint" />
            <Array as="points">
              <mxPoint x="1390" y="470" />
            </Array>
            <mxPoint x="1991.5" y="470" as="targetPoint" />
            <mxPoint as="offset" />
          </mxGeometry>
        </mxCell>
        <mxCell id="1kuVa8GH8NHrZ08HFkGU-133" value="GESTORSERVICE" style="shape=umlLifeline;perimeter=lifelinePerimeter;whiteSpace=wrap;html=1;container=0;dropTarget=0;collapsible=0;recursiveResize=0;outlineConnect=0;portConstraint=eastwest;newEdgeStyle={&quot;edgeStyle&quot;:&quot;elbowEdgeStyle&quot;,&quot;elbow&quot;:&quot;vertical&quot;,&quot;curved&quot;:0,&quot;rounded&quot;:0};" parent="1" vertex="1">
          <mxGeometry x="1330" y="620" width="115" height="360" as="geometry" />
        </mxCell>
        <mxCell id="1kuVa8GH8NHrZ08HFkGU-134" value="" style="html=1;points=[];perimeter=orthogonalPerimeter;outlineConnect=0;targetShapes=umlLifeline;portConstraint=eastwest;newEdgeStyle={&quot;edgeStyle&quot;:&quot;elbowEdgeStyle&quot;,&quot;elbow&quot;:&quot;vertical&quot;,&quot;curved&quot;:0,&quot;rounded&quot;:0};" parent="1kuVa8GH8NHrZ08HFkGU-133" vertex="1">
          <mxGeometry x="45" y="70" width="10" height="190" as="geometry" />
        </mxCell>
        <mxCell id="1kuVa8GH8NHrZ08HFkGU-135" value="" style="html=1;points=[];perimeter=orthogonalPerimeter;outlineConnect=0;targetShapes=umlLifeline;portConstraint=eastwest;newEdgeStyle={&quot;edgeStyle&quot;:&quot;elbowEdgeStyle&quot;,&quot;elbow&quot;:&quot;vertical&quot;,&quot;curved&quot;:0,&quot;rounded&quot;:0};" parent="1kuVa8GH8NHrZ08HFkGU-133" vertex="1">
          <mxGeometry x="50" y="120" width="10" height="80" as="geometry" />
        </mxCell>
        <mxCell id="1kuVa8GH8NHrZ08HFkGU-136" value="CUSTORMERSERVICE" style="shape=umlLifeline;perimeter=lifelinePerimeter;whiteSpace=wrap;html=1;container=0;dropTarget=0;collapsible=0;recursiveResize=0;outlineConnect=0;portConstraint=eastwest;newEdgeStyle={&quot;edgeStyle&quot;:&quot;elbowEdgeStyle&quot;,&quot;elbow&quot;:&quot;vertical&quot;,&quot;curved&quot;:0,&quot;rounded&quot;:0};" parent="1" vertex="1">
          <mxGeometry x="1510" y="620" width="140" height="360" as="geometry" />
        </mxCell>
        <mxCell id="1kuVa8GH8NHrZ08HFkGU-137" value="" style="html=1;points=[];perimeter=orthogonalPerimeter;outlineConnect=0;targetShapes=umlLifeline;portConstraint=eastwest;newEdgeStyle={&quot;edgeStyle&quot;:&quot;elbowEdgeStyle&quot;,&quot;elbow&quot;:&quot;vertical&quot;,&quot;curved&quot;:0,&quot;rounded&quot;:0};" parent="1kuVa8GH8NHrZ08HFkGU-136" vertex="1">
          <mxGeometry x="45" y="80" width="10" height="170" as="geometry" />
        </mxCell>
        <mxCell id="1kuVa8GH8NHrZ08HFkGU-138" value="solicitarCliente(cuentaId)" style="html=1;verticalAlign=bottom;endArrow=block;edgeStyle=elbowEdgeStyle;elbow=horizontal;curved=0;rounded=0;" parent="1" source="1kuVa8GH8NHrZ08HFkGU-134" target="1kuVa8GH8NHrZ08HFkGU-137" edge="1">
          <mxGeometry x="0.0017" relative="1" as="geometry">
            <mxPoint x="1500" y="710" as="sourcePoint" />
            <Array as="points">
              <mxPoint x="1485" y="700" />
            </Array>
            <mxPoint as="offset" />
          </mxGeometry>
        </mxCell>
        <mxCell id="1kuVa8GH8NHrZ08HFkGU-139" value="getCliente()" style="html=1;verticalAlign=bottom;endArrow=block;edgeStyle=elbowEdgeStyle;elbow=vertical;curved=0;rounded=0;dashed=1;" parent="1" edge="1">
          <mxGeometry relative="1" as="geometry">
            <mxPoint x="1556" y="720" as="sourcePoint" />
            <Array as="points">
              <mxPoint x="1456" y="720" />
            </Array>
            <mxPoint x="1390" y="720" as="targetPoint" />
          </mxGeometry>
        </mxCell>
        <mxCell id="1kuVa8GH8NHrZ08HFkGU-140" value="CREDITSERVICE" style="shape=umlLifeline;perimeter=lifelinePerimeter;whiteSpace=wrap;html=1;container=0;dropTarget=0;collapsible=0;recursiveResize=0;outlineConnect=0;portConstraint=eastwest;newEdgeStyle={&quot;edgeStyle&quot;:&quot;elbowEdgeStyle&quot;,&quot;elbow&quot;:&quot;vertical&quot;,&quot;curved&quot;:0,&quot;rounded&quot;:0};" parent="1" vertex="1">
          <mxGeometry x="1730" y="620" width="135" height="360" as="geometry" />
        </mxCell>
        <mxCell id="1kuVa8GH8NHrZ08HFkGU-141" value="" style="html=1;points=[];perimeter=orthogonalPerimeter;outlineConnect=0;targetShapes=umlLifeline;portConstraint=eastwest;newEdgeStyle={&quot;edgeStyle&quot;:&quot;elbowEdgeStyle&quot;,&quot;elbow&quot;:&quot;vertical&quot;,&quot;curved&quot;:0,&quot;rounded&quot;:0};" parent="1kuVa8GH8NHrZ08HFkGU-140" vertex="1">
          <mxGeometry x="45" y="80" width="10" height="170" as="geometry" />
        </mxCell>
        <mxCell id="1kuVa8GH8NHrZ08HFkGU-142" value="DepositoEfectivo()" style="html=1;verticalAlign=bottom;endArrow=block;edgeStyle=elbowEdgeStyle;elbow=vertical;curved=0;rounded=0;" parent="1" edge="1">
          <mxGeometry x="0.0033" relative="1" as="geometry">
            <mxPoint x="1390" y="749.29" as="sourcePoint" />
            <Array as="points">
              <mxPoint x="1400" y="749" />
            </Array>
            <mxPoint x="1770" y="749" as="targetPoint" />
            <mxPoint as="offset" />
          </mxGeometry>
        </mxCell>
        <mxCell id="1kuVa8GH8NHrZ08HFkGU-143" value="Deposito Efectivo" style="html=1;verticalAlign=bottom;startArrow=oval;endArrow=block;startSize=8;edgeStyle=elbowEdgeStyle;elbow=vertical;curved=0;rounded=0;" parent="1" target="1kuVa8GH8NHrZ08HFkGU-134" edge="1">
          <mxGeometry x="0.0061" relative="1" as="geometry">
            <mxPoint x="1210" y="700" as="sourcePoint" />
            <Array as="points">
              <mxPoint x="1330" y="700" />
            </Array>
            <mxPoint as="offset" />
          </mxGeometry>
        </mxCell>
        <mxCell id="1kuVa8GH8NHrZ08HFkGU-144" value="Cliente" style="shape=umlActor;verticalLabelPosition=bottom;verticalAlign=top;html=1;outlineConnect=0;" parent="1" vertex="1">
          <mxGeometry x="1165" y="680" width="30" height="60" as="geometry" />
        </mxCell>
        <mxCell id="1kuVa8GH8NHrZ08HFkGU-145" value="Respuesta Cliente Ok" style="html=1;verticalAlign=bottom;endArrow=block;edgeStyle=elbowEdgeStyle;elbow=vertical;curved=0;rounded=0;dashed=1;" parent="1" edge="1">
          <mxGeometry relative="1" as="geometry">
            <mxPoint x="1374" y="830" as="sourcePoint" />
            <Array as="points">
              <mxPoint x="1309" y="830" />
            </Array>
            <mxPoint x="1195" y="760" as="targetPoint" />
          </mxGeometry>
        </mxCell>
        <mxCell id="1kuVa8GH8NHrZ08HFkGU-146" value="DEPOSITO DE EFECTIVO&amp;nbsp;&lt;div&gt;&lt;span style=&quot;background-color: initial;&quot;&gt;(ACCOUNTSERVICE)&lt;/span&gt;&lt;/div&gt;" style="rounded=0;whiteSpace=wrap;html=1;" parent="1" vertex="1">
          <mxGeometry x="1110" y="520" width="150" height="90" as="geometry" />
        </mxCell>
        <mxCell id="1kuVa8GH8NHrZ08HFkGU-147" value="DepositoEfectivo()" style="html=1;verticalAlign=bottom;endArrow=block;edgeStyle=elbowEdgeStyle;elbow=vertical;curved=0;rounded=0;dashed=1;" parent="1" source="1kuVa8GH8NHrZ08HFkGU-141" edge="1">
          <mxGeometry relative="1" as="geometry">
            <mxPoint x="1565" y="777" as="sourcePoint" />
            <Array as="points">
              <mxPoint x="1490" y="777" />
            </Array>
            <mxPoint x="1390" y="777" as="targetPoint" />
          </mxGeometry>
        </mxCell>
        <mxCell id="1kuVa8GH8NHrZ08HFkGU-148" value="Error Saldo no disponible&amp;nbsp;&lt;div&gt;u otro motivo&lt;/div&gt;" style="html=1;verticalAlign=bottom;endArrow=block;edgeStyle=elbowEdgeStyle;elbow=vertical;curved=0;rounded=0;dashed=1;" parent="1" edge="1">
          <mxGeometry x="0.004" relative="1" as="geometry">
            <mxPoint x="1369" y="880" as="sourcePoint" />
            <Array as="points">
              <mxPoint x="1304" y="880" />
            </Array>
            <mxPoint x="1180" y="820" as="targetPoint" />
            <mxPoint as="offset" />
          </mxGeometry>
        </mxCell>
        <mxCell id="1kuVa8GH8NHrZ08HFkGU-149" value="TRANSACTIONSERVICE" style="shape=umlLifeline;perimeter=lifelinePerimeter;whiteSpace=wrap;html=1;container=0;dropTarget=0;collapsible=0;recursiveResize=0;outlineConnect=0;portConstraint=eastwest;newEdgeStyle={&quot;edgeStyle&quot;:&quot;elbowEdgeStyle&quot;,&quot;elbow&quot;:&quot;vertical&quot;,&quot;curved&quot;:0,&quot;rounded&quot;:0};" parent="1" vertex="1">
          <mxGeometry x="1967" y="620" width="150" height="360" as="geometry" />
        </mxCell>
        <mxCell id="1kuVa8GH8NHrZ08HFkGU-150" value="" style="html=1;points=[];perimeter=orthogonalPerimeter;outlineConnect=0;targetShapes=umlLifeline;portConstraint=eastwest;newEdgeStyle={&quot;edgeStyle&quot;:&quot;elbowEdgeStyle&quot;,&quot;elbow&quot;:&quot;vertical&quot;,&quot;curved&quot;:0,&quot;rounded&quot;:0};" parent="1kuVa8GH8NHrZ08HFkGU-149" vertex="1">
          <mxGeometry x="45" y="80" width="10" height="240" as="geometry" />
        </mxCell>
        <mxCell id="1kuVa8GH8NHrZ08HFkGU-151" value="GrabanMovimiento(cuentaId)" style="html=1;verticalAlign=bottom;endArrow=block;edgeStyle=elbowEdgeStyle;elbow=vertical;curved=0;rounded=0;" parent="1" target="1kuVa8GH8NHrZ08HFkGU-150" edge="1">
          <mxGeometry x="0.0033" relative="1" as="geometry">
            <mxPoint x="1390" y="910.29" as="sourcePoint" />
            <Array as="points">
              <mxPoint x="1400" y="910" />
            </Array>
            <mxPoint x="2001.5" y="910" as="targetPoint" />
            <mxPoint as="offset" />
          </mxGeometry>
        </mxCell>
        <mxCell id="1kuVa8GH8NHrZ08HFkGU-152" value="GESTORSERVICE" style="shape=umlLifeline;perimeter=lifelinePerimeter;whiteSpace=wrap;html=1;container=0;dropTarget=0;collapsible=0;recursiveResize=0;outlineConnect=0;portConstraint=eastwest;newEdgeStyle={&quot;edgeStyle&quot;:&quot;elbowEdgeStyle&quot;,&quot;elbow&quot;:&quot;vertical&quot;,&quot;curved&quot;:0,&quot;rounded&quot;:0};" parent="1" vertex="1">
          <mxGeometry x="1360" y="1080" width="115" height="360" as="geometry" />
        </mxCell>
        <mxCell id="1kuVa8GH8NHrZ08HFkGU-153" value="" style="html=1;points=[];perimeter=orthogonalPerimeter;outlineConnect=0;targetShapes=umlLifeline;portConstraint=eastwest;newEdgeStyle={&quot;edgeStyle&quot;:&quot;elbowEdgeStyle&quot;,&quot;elbow&quot;:&quot;vertical&quot;,&quot;curved&quot;:0,&quot;rounded&quot;:0};" parent="1kuVa8GH8NHrZ08HFkGU-152" vertex="1">
          <mxGeometry x="45" y="70" width="10" height="190" as="geometry" />
        </mxCell>
        <mxCell id="1kuVa8GH8NHrZ08HFkGU-154" value="" style="html=1;points=[];perimeter=orthogonalPerimeter;outlineConnect=0;targetShapes=umlLifeline;portConstraint=eastwest;newEdgeStyle={&quot;edgeStyle&quot;:&quot;elbowEdgeStyle&quot;,&quot;elbow&quot;:&quot;vertical&quot;,&quot;curved&quot;:0,&quot;rounded&quot;:0};" parent="1kuVa8GH8NHrZ08HFkGU-152" vertex="1">
          <mxGeometry x="50" y="120" width="10" height="80" as="geometry" />
        </mxCell>
        <mxCell id="1kuVa8GH8NHrZ08HFkGU-155" value="CUSTORMERSERVICE" style="shape=umlLifeline;perimeter=lifelinePerimeter;whiteSpace=wrap;html=1;container=0;dropTarget=0;collapsible=0;recursiveResize=0;outlineConnect=0;portConstraint=eastwest;newEdgeStyle={&quot;edgeStyle&quot;:&quot;elbowEdgeStyle&quot;,&quot;elbow&quot;:&quot;vertical&quot;,&quot;curved&quot;:0,&quot;rounded&quot;:0};" parent="1" vertex="1">
          <mxGeometry x="1540" y="1080" width="140" height="360" as="geometry" />
        </mxCell>
        <mxCell id="1kuVa8GH8NHrZ08HFkGU-156" value="" style="html=1;points=[];perimeter=orthogonalPerimeter;outlineConnect=0;targetShapes=umlLifeline;portConstraint=eastwest;newEdgeStyle={&quot;edgeStyle&quot;:&quot;elbowEdgeStyle&quot;,&quot;elbow&quot;:&quot;vertical&quot;,&quot;curved&quot;:0,&quot;rounded&quot;:0};" parent="1kuVa8GH8NHrZ08HFkGU-155" vertex="1">
          <mxGeometry x="45" y="80" width="10" height="170" as="geometry" />
        </mxCell>
        <mxCell id="1kuVa8GH8NHrZ08HFkGU-157" value="solicitarCliente(cuentaId)" style="html=1;verticalAlign=bottom;endArrow=block;edgeStyle=elbowEdgeStyle;elbow=vertical;curved=0;rounded=0;" parent="1" source="1kuVa8GH8NHrZ08HFkGU-153" target="1kuVa8GH8NHrZ08HFkGU-156" edge="1">
          <mxGeometry x="0.0017" relative="1" as="geometry">
            <mxPoint x="1530" y="1170" as="sourcePoint" />
            <Array as="points">
              <mxPoint x="1515" y="1160" />
            </Array>
            <mxPoint as="offset" />
          </mxGeometry>
        </mxCell>
        <mxCell id="1kuVa8GH8NHrZ08HFkGU-158" value="getCliente()" style="html=1;verticalAlign=bottom;endArrow=block;edgeStyle=elbowEdgeStyle;elbow=vertical;curved=0;rounded=0;dashed=1;" parent="1" edge="1">
          <mxGeometry relative="1" as="geometry">
            <mxPoint x="1586" y="1180" as="sourcePoint" />
            <Array as="points">
              <mxPoint x="1486" y="1180" />
            </Array>
            <mxPoint x="1420" y="1180" as="targetPoint" />
          </mxGeometry>
        </mxCell>
        <mxCell id="1kuVa8GH8NHrZ08HFkGU-159" value="CREDITSERVICE" style="shape=umlLifeline;perimeter=lifelinePerimeter;whiteSpace=wrap;html=1;container=0;dropTarget=0;collapsible=0;recursiveResize=0;outlineConnect=0;portConstraint=eastwest;newEdgeStyle={&quot;edgeStyle&quot;:&quot;elbowEdgeStyle&quot;,&quot;elbow&quot;:&quot;vertical&quot;,&quot;curved&quot;:0,&quot;rounded&quot;:0};" parent="1" vertex="1">
          <mxGeometry x="1760" y="1080" width="135" height="360" as="geometry" />
        </mxCell>
        <mxCell id="1kuVa8GH8NHrZ08HFkGU-160" value="" style="html=1;points=[];perimeter=orthogonalPerimeter;outlineConnect=0;targetShapes=umlLifeline;portConstraint=eastwest;newEdgeStyle={&quot;edgeStyle&quot;:&quot;elbowEdgeStyle&quot;,&quot;elbow&quot;:&quot;vertical&quot;,&quot;curved&quot;:0,&quot;rounded&quot;:0};" parent="1kuVa8GH8NHrZ08HFkGU-159" vertex="1">
          <mxGeometry x="45" y="80" width="10" height="170" as="geometry" />
        </mxCell>
        <mxCell id="1kuVa8GH8NHrZ08HFkGU-161" value="ConsumoCredito()" style="html=1;verticalAlign=bottom;endArrow=block;edgeStyle=elbowEdgeStyle;elbow=vertical;curved=0;rounded=0;" parent="1" edge="1">
          <mxGeometry x="0.0033" relative="1" as="geometry">
            <mxPoint x="1420" y="1209.29" as="sourcePoint" />
            <Array as="points">
              <mxPoint x="1430" y="1209" />
            </Array>
            <mxPoint x="1800" y="1209" as="targetPoint" />
            <mxPoint as="offset" />
          </mxGeometry>
        </mxCell>
        <mxCell id="1kuVa8GH8NHrZ08HFkGU-162" value="Consumo Producto de Credito" style="html=1;verticalAlign=bottom;startArrow=oval;endArrow=block;startSize=8;edgeStyle=elbowEdgeStyle;elbow=vertical;curved=0;rounded=0;" parent="1" target="1kuVa8GH8NHrZ08HFkGU-153" edge="1">
          <mxGeometry x="0.0032" relative="1" as="geometry">
            <mxPoint x="1240" y="1160" as="sourcePoint" />
            <Array as="points">
              <mxPoint x="1360" y="1160" />
            </Array>
            <mxPoint as="offset" />
          </mxGeometry>
        </mxCell>
        <mxCell id="1kuVa8GH8NHrZ08HFkGU-163" value="Cliente" style="shape=umlActor;verticalLabelPosition=bottom;verticalAlign=top;html=1;outlineConnect=0;" parent="1" vertex="1">
          <mxGeometry x="1195" y="1140" width="30" height="60" as="geometry" />
        </mxCell>
        <mxCell id="1kuVa8GH8NHrZ08HFkGU-164" value="Respuesta Cliente Ok" style="html=1;verticalAlign=bottom;endArrow=block;edgeStyle=elbowEdgeStyle;elbow=vertical;curved=0;rounded=0;dashed=1;" parent="1" edge="1">
          <mxGeometry relative="1" as="geometry">
            <mxPoint x="1404" y="1290" as="sourcePoint" />
            <Array as="points">
              <mxPoint x="1339" y="1290" />
            </Array>
            <mxPoint x="1225" y="1220" as="targetPoint" />
          </mxGeometry>
        </mxCell>
        <mxCell id="1kuVa8GH8NHrZ08HFkGU-165" value="CONSUMO TARJETA DE CREDITO&lt;div&gt;(CREDITSERVICE)&lt;/div&gt;" style="rounded=0;whiteSpace=wrap;html=1;" parent="1" vertex="1">
          <mxGeometry x="1140" y="980" width="150" height="90" as="geometry" />
        </mxCell>
        <mxCell id="1kuVa8GH8NHrZ08HFkGU-166" value="ConsumoPagoCredito()" style="html=1;verticalAlign=bottom;endArrow=block;edgeStyle=elbowEdgeStyle;elbow=vertical;curved=0;rounded=0;dashed=1;" parent="1" source="1kuVa8GH8NHrZ08HFkGU-160" edge="1">
          <mxGeometry relative="1" as="geometry">
            <mxPoint x="1595" y="1237" as="sourcePoint" />
            <Array as="points">
              <mxPoint x="1520" y="1237" />
            </Array>
            <mxPoint x="1420" y="1237" as="targetPoint" />
          </mxGeometry>
        </mxCell>
        <mxCell id="1kuVa8GH8NHrZ08HFkGU-167" value="&amp;nbsp; &amp;nbsp; &amp;nbsp;Error excede limite de linea&lt;div&gt;&amp;nbsp;de credito u otro motivo&lt;/div&gt;" style="html=1;verticalAlign=bottom;endArrow=block;edgeStyle=elbowEdgeStyle;elbow=vertical;curved=0;rounded=0;dashed=1;" parent="1" edge="1">
          <mxGeometry x="0.004" relative="1" as="geometry">
            <mxPoint x="1399" y="1340" as="sourcePoint" />
            <Array as="points">
              <mxPoint x="1334" y="1340" />
            </Array>
            <mxPoint x="1210" y="1280" as="targetPoint" />
            <mxPoint as="offset" />
          </mxGeometry>
        </mxCell>
        <mxCell id="1kuVa8GH8NHrZ08HFkGU-168" value="TRANSACTIONSERVICE" style="shape=umlLifeline;perimeter=lifelinePerimeter;whiteSpace=wrap;html=1;container=0;dropTarget=0;collapsible=0;recursiveResize=0;outlineConnect=0;portConstraint=eastwest;newEdgeStyle={&quot;edgeStyle&quot;:&quot;elbowEdgeStyle&quot;,&quot;elbow&quot;:&quot;vertical&quot;,&quot;curved&quot;:0,&quot;rounded&quot;:0};" parent="1" vertex="1">
          <mxGeometry x="1997" y="1080" width="150" height="360" as="geometry" />
        </mxCell>
        <mxCell id="1kuVa8GH8NHrZ08HFkGU-169" value="" style="html=1;points=[];perimeter=orthogonalPerimeter;outlineConnect=0;targetShapes=umlLifeline;portConstraint=eastwest;newEdgeStyle={&quot;edgeStyle&quot;:&quot;elbowEdgeStyle&quot;,&quot;elbow&quot;:&quot;vertical&quot;,&quot;curved&quot;:0,&quot;rounded&quot;:0};" parent="1kuVa8GH8NHrZ08HFkGU-168" vertex="1">
          <mxGeometry x="45" y="80" width="10" height="240" as="geometry" />
        </mxCell>
        <mxCell id="1kuVa8GH8NHrZ08HFkGU-170" value="GrabanMovimiento(cuentaId)" style="html=1;verticalAlign=bottom;endArrow=block;edgeStyle=elbowEdgeStyle;elbow=vertical;curved=0;rounded=0;" parent="1" target="1kuVa8GH8NHrZ08HFkGU-169" edge="1">
          <mxGeometry x="0.0033" relative="1" as="geometry">
            <mxPoint x="1420" y="1370.29" as="sourcePoint" />
            <Array as="points">
              <mxPoint x="1430" y="1370" />
            </Array>
            <mxPoint x="2031.5" y="1370" as="targetPoint" />
            <mxPoint as="offset" />
          </mxGeometry>
        </mxCell>
        <mxCell id="fl6-JtezvRM3VzPFtTOV-1" value="apiregistry(Eureka Server)" style="shape=umlLifeline;perimeter=lifelinePerimeter;whiteSpace=wrap;html=1;container=0;dropTarget=0;collapsible=0;recursiveResize=0;outlineConnect=0;portConstraint=eastwest;newEdgeStyle={&quot;edgeStyle&quot;:&quot;elbowEdgeStyle&quot;,&quot;elbow&quot;:&quot;vertical&quot;,&quot;curved&quot;:0,&quot;rounded&quot;:0};" vertex="1" parent="1">
          <mxGeometry x="355" y="10" width="110" height="360" as="geometry" />
        </mxCell>
        <mxCell id="fl6-JtezvRM3VzPFtTOV-8" value="" style="endArrow=none;html=1;rounded=0;" edge="1" parent="1">
          <mxGeometry width="50" height="50" relative="1" as="geometry">
            <mxPoint x="520" y="40" as="sourcePoint" />
            <mxPoint x="680" y="40" as="targetPoint" />
          </mxGeometry>
        </mxCell>
        <mxCell id="fl6-JtezvRM3VzPFtTOV-9" value="" style="endArrow=none;html=1;rounded=0;" edge="1" parent="1">
          <mxGeometry width="50" height="50" relative="1" as="geometry">
            <mxPoint x="465" y="40" as="sourcePoint" />
            <mxPoint x="520" y="40" as="targetPoint" />
          </mxGeometry>
        </mxCell>
        <mxCell id="fl6-JtezvRM3VzPFtTOV-10" value="" style="endArrow=none;html=1;rounded=0;" edge="1" parent="1">
          <mxGeometry width="50" height="50" relative="1" as="geometry">
            <mxPoint x="520" y="90" as="sourcePoint" />
            <mxPoint x="520" y="40" as="targetPoint" />
          </mxGeometry>
        </mxCell>
        <mxCell id="fl6-JtezvRM3VzPFtTOV-12" value="" style="endArrow=none;html=1;rounded=0;" edge="1" parent="1">
          <mxGeometry width="50" height="50" relative="1" as="geometry">
            <mxPoint x="680" y="90" as="sourcePoint" />
            <mxPoint x="680" y="40" as="targetPoint" />
          </mxGeometry>
        </mxCell>
        <mxCell id="fl6-JtezvRM3VzPFtTOV-13" value="" style="endArrow=none;html=1;rounded=0;" edge="1" parent="1">
          <mxGeometry width="50" height="50" relative="1" as="geometry">
            <mxPoint x="680" y="40" as="sourcePoint" />
            <mxPoint x="920" y="40" as="targetPoint" />
          </mxGeometry>
        </mxCell>
        <mxCell id="fl6-JtezvRM3VzPFtTOV-14" value="" style="endArrow=none;html=1;rounded=0;" edge="1" parent="1">
          <mxGeometry width="50" height="50" relative="1" as="geometry">
            <mxPoint x="920" y="90" as="sourcePoint" />
            <mxPoint x="920" y="40" as="targetPoint" />
          </mxGeometry>
        </mxCell>
        <mxCell id="fl6-JtezvRM3VzPFtTOV-15" value="" style="endArrow=none;html=1;rounded=0;" edge="1" parent="1">
          <mxGeometry width="50" height="50" relative="1" as="geometry">
            <mxPoint x="320" y="90" as="sourcePoint" />
            <mxPoint x="320" y="40" as="targetPoint" />
          </mxGeometry>
        </mxCell>
        <mxCell id="fl6-JtezvRM3VzPFtTOV-16" value="" style="endArrow=none;html=1;rounded=0;entryX=0.045;entryY=0.083;entryDx=0;entryDy=0;entryPerimeter=0;" edge="1" parent="1" target="fl6-JtezvRM3VzPFtTOV-1">
          <mxGeometry width="50" height="50" relative="1" as="geometry">
            <mxPoint x="320" y="40" as="sourcePoint" />
            <mxPoint x="350" y="40" as="targetPoint" />
          </mxGeometry>
        </mxCell>
        <mxCell id="fl6-JtezvRM3VzPFtTOV-17" value="apiregistry(Eureka Server)" style="shape=umlLifeline;perimeter=lifelinePerimeter;whiteSpace=wrap;html=1;container=0;dropTarget=0;collapsible=0;recursiveResize=0;outlineConnect=0;portConstraint=eastwest;newEdgeStyle={&quot;edgeStyle&quot;:&quot;elbowEdgeStyle&quot;,&quot;elbow&quot;:&quot;vertical&quot;,&quot;curved&quot;:0,&quot;rounded&quot;:0};" vertex="1" parent="1">
          <mxGeometry x="345" y="410" width="110" height="360" as="geometry" />
        </mxCell>
        <mxCell id="fl6-JtezvRM3VzPFtTOV-18" value="" style="endArrow=none;html=1;rounded=0;" edge="1" parent="1">
          <mxGeometry width="50" height="50" relative="1" as="geometry">
            <mxPoint x="510" y="440" as="sourcePoint" />
            <mxPoint x="670" y="440" as="targetPoint" />
          </mxGeometry>
        </mxCell>
        <mxCell id="fl6-JtezvRM3VzPFtTOV-19" value="" style="endArrow=none;html=1;rounded=0;" edge="1" parent="1">
          <mxGeometry width="50" height="50" relative="1" as="geometry">
            <mxPoint x="455" y="440" as="sourcePoint" />
            <mxPoint x="510" y="440" as="targetPoint" />
          </mxGeometry>
        </mxCell>
        <mxCell id="fl6-JtezvRM3VzPFtTOV-20" value="" style="endArrow=none;html=1;rounded=0;" edge="1" parent="1">
          <mxGeometry width="50" height="50" relative="1" as="geometry">
            <mxPoint x="510" y="490" as="sourcePoint" />
            <mxPoint x="510" y="440" as="targetPoint" />
          </mxGeometry>
        </mxCell>
        <mxCell id="fl6-JtezvRM3VzPFtTOV-21" value="" style="endArrow=none;html=1;rounded=0;" edge="1" parent="1">
          <mxGeometry width="50" height="50" relative="1" as="geometry">
            <mxPoint x="670" y="490" as="sourcePoint" />
            <mxPoint x="670" y="440" as="targetPoint" />
          </mxGeometry>
        </mxCell>
        <mxCell id="fl6-JtezvRM3VzPFtTOV-22" value="" style="endArrow=none;html=1;rounded=0;" edge="1" parent="1">
          <mxGeometry width="50" height="50" relative="1" as="geometry">
            <mxPoint x="670" y="440" as="sourcePoint" />
            <mxPoint x="910" y="440" as="targetPoint" />
          </mxGeometry>
        </mxCell>
        <mxCell id="fl6-JtezvRM3VzPFtTOV-23" value="" style="endArrow=none;html=1;rounded=0;" edge="1" parent="1">
          <mxGeometry width="50" height="50" relative="1" as="geometry">
            <mxPoint x="910" y="490" as="sourcePoint" />
            <mxPoint x="910" y="440" as="targetPoint" />
          </mxGeometry>
        </mxCell>
        <mxCell id="fl6-JtezvRM3VzPFtTOV-24" value="" style="endArrow=none;html=1;rounded=0;" edge="1" parent="1">
          <mxGeometry width="50" height="50" relative="1" as="geometry">
            <mxPoint x="310" y="490" as="sourcePoint" />
            <mxPoint x="310" y="440" as="targetPoint" />
          </mxGeometry>
        </mxCell>
        <mxCell id="fl6-JtezvRM3VzPFtTOV-25" value="" style="endArrow=none;html=1;rounded=0;entryX=0.045;entryY=0.083;entryDx=0;entryDy=0;entryPerimeter=0;" edge="1" parent="1" target="fl6-JtezvRM3VzPFtTOV-17">
          <mxGeometry width="50" height="50" relative="1" as="geometry">
            <mxPoint x="310" y="440" as="sourcePoint" />
            <mxPoint x="340" y="440" as="targetPoint" />
          </mxGeometry>
        </mxCell>
        <mxCell id="fl6-JtezvRM3VzPFtTOV-26" value="apiregistry(Eureka Server)" style="shape=umlLifeline;perimeter=lifelinePerimeter;whiteSpace=wrap;html=1;container=0;dropTarget=0;collapsible=0;recursiveResize=0;outlineConnect=0;portConstraint=eastwest;newEdgeStyle={&quot;edgeStyle&quot;:&quot;elbowEdgeStyle&quot;,&quot;elbow&quot;:&quot;vertical&quot;,&quot;curved&quot;:0,&quot;rounded&quot;:0};" vertex="1" parent="1">
          <mxGeometry x="335" y="910" width="110" height="360" as="geometry" />
        </mxCell>
        <mxCell id="fl6-JtezvRM3VzPFtTOV-27" value="" style="endArrow=none;html=1;rounded=0;" edge="1" parent="1">
          <mxGeometry width="50" height="50" relative="1" as="geometry">
            <mxPoint x="500" y="940" as="sourcePoint" />
            <mxPoint x="660" y="940" as="targetPoint" />
          </mxGeometry>
        </mxCell>
        <mxCell id="fl6-JtezvRM3VzPFtTOV-28" value="" style="endArrow=none;html=1;rounded=0;" edge="1" parent="1">
          <mxGeometry width="50" height="50" relative="1" as="geometry">
            <mxPoint x="445" y="940" as="sourcePoint" />
            <mxPoint x="500" y="940" as="targetPoint" />
          </mxGeometry>
        </mxCell>
        <mxCell id="fl6-JtezvRM3VzPFtTOV-29" value="" style="endArrow=none;html=1;rounded=0;" edge="1" parent="1">
          <mxGeometry width="50" height="50" relative="1" as="geometry">
            <mxPoint x="500" y="990" as="sourcePoint" />
            <mxPoint x="500" y="940" as="targetPoint" />
          </mxGeometry>
        </mxCell>
        <mxCell id="fl6-JtezvRM3VzPFtTOV-30" value="" style="endArrow=none;html=1;rounded=0;" edge="1" parent="1">
          <mxGeometry width="50" height="50" relative="1" as="geometry">
            <mxPoint x="660" y="990" as="sourcePoint" />
            <mxPoint x="660" y="940" as="targetPoint" />
          </mxGeometry>
        </mxCell>
        <mxCell id="fl6-JtezvRM3VzPFtTOV-31" value="" style="endArrow=none;html=1;rounded=0;" edge="1" parent="1">
          <mxGeometry width="50" height="50" relative="1" as="geometry">
            <mxPoint x="660" y="940" as="sourcePoint" />
            <mxPoint x="900" y="940" as="targetPoint" />
          </mxGeometry>
        </mxCell>
        <mxCell id="fl6-JtezvRM3VzPFtTOV-32" value="" style="endArrow=none;html=1;rounded=0;" edge="1" parent="1">
          <mxGeometry width="50" height="50" relative="1" as="geometry">
            <mxPoint x="900" y="990" as="sourcePoint" />
            <mxPoint x="900" y="940" as="targetPoint" />
          </mxGeometry>
        </mxCell>
        <mxCell id="fl6-JtezvRM3VzPFtTOV-33" value="" style="endArrow=none;html=1;rounded=0;" edge="1" parent="1">
          <mxGeometry width="50" height="50" relative="1" as="geometry">
            <mxPoint x="300" y="990" as="sourcePoint" />
            <mxPoint x="300" y="940" as="targetPoint" />
          </mxGeometry>
        </mxCell>
        <mxCell id="fl6-JtezvRM3VzPFtTOV-34" value="" style="endArrow=none;html=1;rounded=0;entryX=0.045;entryY=0.083;entryDx=0;entryDy=0;entryPerimeter=0;" edge="1" parent="1" target="fl6-JtezvRM3VzPFtTOV-26">
          <mxGeometry width="50" height="50" relative="1" as="geometry">
            <mxPoint x="300" y="940" as="sourcePoint" />
            <mxPoint x="330" y="940" as="targetPoint" />
          </mxGeometry>
        </mxCell>
        <mxCell id="fl6-JtezvRM3VzPFtTOV-35" value="apiregistry(Eureka Server)" style="shape=umlLifeline;perimeter=lifelinePerimeter;whiteSpace=wrap;html=1;container=0;dropTarget=0;collapsible=0;recursiveResize=0;outlineConnect=0;portConstraint=eastwest;newEdgeStyle={&quot;edgeStyle&quot;:&quot;elbowEdgeStyle&quot;,&quot;elbow&quot;:&quot;vertical&quot;,&quot;curved&quot;:0,&quot;rounded&quot;:0};" vertex="1" parent="1">
          <mxGeometry x="1401" y="100" width="110" height="360" as="geometry" />
        </mxCell>
        <mxCell id="fl6-JtezvRM3VzPFtTOV-36" value="" style="endArrow=none;html=1;rounded=0;" edge="1" parent="1">
          <mxGeometry width="50" height="50" relative="1" as="geometry">
            <mxPoint x="1566" y="130" as="sourcePoint" />
            <mxPoint x="1726" y="130" as="targetPoint" />
          </mxGeometry>
        </mxCell>
        <mxCell id="fl6-JtezvRM3VzPFtTOV-37" value="" style="endArrow=none;html=1;rounded=0;" edge="1" parent="1">
          <mxGeometry width="50" height="50" relative="1" as="geometry">
            <mxPoint x="1511" y="130" as="sourcePoint" />
            <mxPoint x="1566" y="130" as="targetPoint" />
          </mxGeometry>
        </mxCell>
        <mxCell id="fl6-JtezvRM3VzPFtTOV-38" value="" style="endArrow=none;html=1;rounded=0;" edge="1" parent="1">
          <mxGeometry width="50" height="50" relative="1" as="geometry">
            <mxPoint x="1566" y="180" as="sourcePoint" />
            <mxPoint x="1566" y="130" as="targetPoint" />
          </mxGeometry>
        </mxCell>
        <mxCell id="fl6-JtezvRM3VzPFtTOV-39" value="" style="endArrow=none;html=1;rounded=0;" edge="1" parent="1">
          <mxGeometry width="50" height="50" relative="1" as="geometry">
            <mxPoint x="1726" y="180" as="sourcePoint" />
            <mxPoint x="1726" y="130" as="targetPoint" />
          </mxGeometry>
        </mxCell>
        <mxCell id="fl6-JtezvRM3VzPFtTOV-40" value="" style="endArrow=none;html=1;rounded=0;" edge="1" parent="1">
          <mxGeometry width="50" height="50" relative="1" as="geometry">
            <mxPoint x="1726" y="130" as="sourcePoint" />
            <mxPoint x="1966" y="130" as="targetPoint" />
          </mxGeometry>
        </mxCell>
        <mxCell id="fl6-JtezvRM3VzPFtTOV-41" value="" style="endArrow=none;html=1;rounded=0;" edge="1" parent="1">
          <mxGeometry width="50" height="50" relative="1" as="geometry">
            <mxPoint x="1966" y="180" as="sourcePoint" />
            <mxPoint x="1966" y="130" as="targetPoint" />
          </mxGeometry>
        </mxCell>
        <mxCell id="fl6-JtezvRM3VzPFtTOV-42" value="" style="endArrow=none;html=1;rounded=0;" edge="1" parent="1">
          <mxGeometry width="50" height="50" relative="1" as="geometry">
            <mxPoint x="1366" y="180" as="sourcePoint" />
            <mxPoint x="1366" y="130" as="targetPoint" />
          </mxGeometry>
        </mxCell>
        <mxCell id="fl6-JtezvRM3VzPFtTOV-43" value="" style="endArrow=none;html=1;rounded=0;entryX=0.045;entryY=0.083;entryDx=0;entryDy=0;entryPerimeter=0;" edge="1" parent="1" target="fl6-JtezvRM3VzPFtTOV-35">
          <mxGeometry width="50" height="50" relative="1" as="geometry">
            <mxPoint x="1366" y="130" as="sourcePoint" />
            <mxPoint x="1396" y="130" as="targetPoint" />
          </mxGeometry>
        </mxCell>
        <mxCell id="fl6-JtezvRM3VzPFtTOV-44" value="apiregistry(Eureka Server)" style="shape=umlLifeline;perimeter=lifelinePerimeter;whiteSpace=wrap;html=1;container=0;dropTarget=0;collapsible=0;recursiveResize=0;outlineConnect=0;portConstraint=eastwest;newEdgeStyle={&quot;edgeStyle&quot;:&quot;elbowEdgeStyle&quot;,&quot;elbow&quot;:&quot;vertical&quot;,&quot;curved&quot;:0,&quot;rounded&quot;:0};" vertex="1" parent="1">
          <mxGeometry x="1411" y="540" width="110" height="360" as="geometry" />
        </mxCell>
        <mxCell id="fl6-JtezvRM3VzPFtTOV-45" value="" style="endArrow=none;html=1;rounded=0;" edge="1" parent="1">
          <mxGeometry width="50" height="50" relative="1" as="geometry">
            <mxPoint x="1576" y="570" as="sourcePoint" />
            <mxPoint x="1736" y="570" as="targetPoint" />
          </mxGeometry>
        </mxCell>
        <mxCell id="fl6-JtezvRM3VzPFtTOV-46" value="" style="endArrow=none;html=1;rounded=0;" edge="1" parent="1">
          <mxGeometry width="50" height="50" relative="1" as="geometry">
            <mxPoint x="1521" y="570" as="sourcePoint" />
            <mxPoint x="1576" y="570" as="targetPoint" />
          </mxGeometry>
        </mxCell>
        <mxCell id="fl6-JtezvRM3VzPFtTOV-47" value="" style="endArrow=none;html=1;rounded=0;" edge="1" parent="1">
          <mxGeometry width="50" height="50" relative="1" as="geometry">
            <mxPoint x="1576" y="620" as="sourcePoint" />
            <mxPoint x="1576" y="570" as="targetPoint" />
          </mxGeometry>
        </mxCell>
        <mxCell id="fl6-JtezvRM3VzPFtTOV-48" value="" style="endArrow=none;html=1;rounded=0;" edge="1" parent="1">
          <mxGeometry width="50" height="50" relative="1" as="geometry">
            <mxPoint x="1736" y="620" as="sourcePoint" />
            <mxPoint x="1736" y="570" as="targetPoint" />
          </mxGeometry>
        </mxCell>
        <mxCell id="fl6-JtezvRM3VzPFtTOV-49" value="" style="endArrow=none;html=1;rounded=0;" edge="1" parent="1">
          <mxGeometry width="50" height="50" relative="1" as="geometry">
            <mxPoint x="1736" y="570" as="sourcePoint" />
            <mxPoint x="1976" y="570" as="targetPoint" />
          </mxGeometry>
        </mxCell>
        <mxCell id="fl6-JtezvRM3VzPFtTOV-50" value="" style="endArrow=none;html=1;rounded=0;" edge="1" parent="1">
          <mxGeometry width="50" height="50" relative="1" as="geometry">
            <mxPoint x="1976" y="620" as="sourcePoint" />
            <mxPoint x="1976" y="570" as="targetPoint" />
          </mxGeometry>
        </mxCell>
        <mxCell id="fl6-JtezvRM3VzPFtTOV-51" value="" style="endArrow=none;html=1;rounded=0;" edge="1" parent="1">
          <mxGeometry width="50" height="50" relative="1" as="geometry">
            <mxPoint x="1376" y="620" as="sourcePoint" />
            <mxPoint x="1376" y="570" as="targetPoint" />
          </mxGeometry>
        </mxCell>
        <mxCell id="fl6-JtezvRM3VzPFtTOV-52" value="" style="endArrow=none;html=1;rounded=0;entryX=0.045;entryY=0.083;entryDx=0;entryDy=0;entryPerimeter=0;" edge="1" parent="1" target="fl6-JtezvRM3VzPFtTOV-44">
          <mxGeometry width="50" height="50" relative="1" as="geometry">
            <mxPoint x="1376" y="570" as="sourcePoint" />
            <mxPoint x="1406" y="570" as="targetPoint" />
          </mxGeometry>
        </mxCell>
        <mxCell id="fl6-JtezvRM3VzPFtTOV-53" value="apiregistry(Eureka Server)" style="shape=umlLifeline;perimeter=lifelinePerimeter;whiteSpace=wrap;html=1;container=0;dropTarget=0;collapsible=0;recursiveResize=0;outlineConnect=0;portConstraint=eastwest;newEdgeStyle={&quot;edgeStyle&quot;:&quot;elbowEdgeStyle&quot;,&quot;elbow&quot;:&quot;vertical&quot;,&quot;curved&quot;:0,&quot;rounded&quot;:0};" vertex="1" parent="1">
          <mxGeometry x="1436" y="1000" width="110" height="360" as="geometry" />
        </mxCell>
        <mxCell id="fl6-JtezvRM3VzPFtTOV-54" value="" style="endArrow=none;html=1;rounded=0;" edge="1" parent="1">
          <mxGeometry width="50" height="50" relative="1" as="geometry">
            <mxPoint x="1601" y="1030" as="sourcePoint" />
            <mxPoint x="1761" y="1030" as="targetPoint" />
          </mxGeometry>
        </mxCell>
        <mxCell id="fl6-JtezvRM3VzPFtTOV-55" value="" style="endArrow=none;html=1;rounded=0;" edge="1" parent="1">
          <mxGeometry width="50" height="50" relative="1" as="geometry">
            <mxPoint x="1546" y="1030" as="sourcePoint" />
            <mxPoint x="1601" y="1030" as="targetPoint" />
          </mxGeometry>
        </mxCell>
        <mxCell id="fl6-JtezvRM3VzPFtTOV-56" value="" style="endArrow=none;html=1;rounded=0;" edge="1" parent="1">
          <mxGeometry width="50" height="50" relative="1" as="geometry">
            <mxPoint x="1601" y="1080" as="sourcePoint" />
            <mxPoint x="1601" y="1030" as="targetPoint" />
          </mxGeometry>
        </mxCell>
        <mxCell id="fl6-JtezvRM3VzPFtTOV-57" value="" style="endArrow=none;html=1;rounded=0;" edge="1" parent="1">
          <mxGeometry width="50" height="50" relative="1" as="geometry">
            <mxPoint x="1761" y="1080" as="sourcePoint" />
            <mxPoint x="1761" y="1030" as="targetPoint" />
          </mxGeometry>
        </mxCell>
        <mxCell id="fl6-JtezvRM3VzPFtTOV-58" value="" style="endArrow=none;html=1;rounded=0;" edge="1" parent="1">
          <mxGeometry width="50" height="50" relative="1" as="geometry">
            <mxPoint x="1761" y="1030" as="sourcePoint" />
            <mxPoint x="2001" y="1030" as="targetPoint" />
          </mxGeometry>
        </mxCell>
        <mxCell id="fl6-JtezvRM3VzPFtTOV-59" value="" style="endArrow=none;html=1;rounded=0;" edge="1" parent="1">
          <mxGeometry width="50" height="50" relative="1" as="geometry">
            <mxPoint x="2001" y="1080" as="sourcePoint" />
            <mxPoint x="2001" y="1030" as="targetPoint" />
          </mxGeometry>
        </mxCell>
        <mxCell id="fl6-JtezvRM3VzPFtTOV-60" value="" style="endArrow=none;html=1;rounded=0;" edge="1" parent="1">
          <mxGeometry width="50" height="50" relative="1" as="geometry">
            <mxPoint x="1401" y="1080" as="sourcePoint" />
            <mxPoint x="1401" y="1030" as="targetPoint" />
          </mxGeometry>
        </mxCell>
        <mxCell id="fl6-JtezvRM3VzPFtTOV-61" value="" style="endArrow=none;html=1;rounded=0;entryX=0.045;entryY=0.083;entryDx=0;entryDy=0;entryPerimeter=0;" edge="1" parent="1" target="fl6-JtezvRM3VzPFtTOV-53">
          <mxGeometry width="50" height="50" relative="1" as="geometry">
            <mxPoint x="1401" y="1030" as="sourcePoint" />
            <mxPoint x="1431" y="1030" as="targetPoint" />
          </mxGeometry>
        </mxCell>
      </root>
    </mxGraphModel>
  </diagram>
</mxfile>
